<?xml version="1.0" encoding="windows-1252" standalone="no"?>
<svg xmlns="http://www.w3.org/2000/svg" xmlns:xlink="http://www.w3.org/1999/xlink" contentStyleType="text/css" height="2932px" preserveAspectRatio="none" style="width:296px;height:2932px;background:#FFFFFF;" version="1.1" viewBox="0 0 296 2932" width="296px" zoomAndPan="magnify"><defs/><g><ellipse cx="148" cy="20" fill="#222222" rx="10" ry="10" style="stroke:#222222;stroke-width:1.0;"/><rect fill="#F1F1F1" height="33.9688" rx="12.5" ry="12.5" style="stroke:#181818;stroke-width:0.5;" width="101" x="97.5" y="50"/><text fill="#000000" font-family="sans-serif" font-size="12" lengthAdjust="spacing" textLength="81" x="107.5" y="71.1387">Install Laravel</text><rect fill="#F1F1F1" height="33.9688" rx="12.5" ry="12.5" style="stroke:#181818;stroke-width:0.5;" width="126" x="85" y="103.9688"/><text fill="#000000" font-family="sans-serif" font-size="12" lengthAdjust="spacing" textLength="106" x="95" y="125.1074">Install JWT Library</text><rect fill="#F1F1F1" height="33.9688" rx="12.5" ry="12.5" style="stroke:#181818;stroke-width:0.5;" width="210" x="43" y="157.9375"/><text fill="#000000" font-family="sans-serif" font-size="12" lengthAdjust="spacing" textLength="190" x="53" y="179.0762">Configure Database Connection</text><rect fill="#F1F1F1" height="33.9688" rx="12.5" ry="12.5" style="stroke:#181818;stroke-width:0.5;" width="172" x="62" y="211.9063"/><text fill="#000000" font-family="sans-serif" font-size="12" lengthAdjust="spacing" textLength="152" x="72" y="233.0449">Define Database Schema</text><rect fill="none" height="190.2031" style="stroke:#000000;stroke-width:1.5;" width="173" x="61.5" y="255.875"/><path d="M144.5,255.875 L144.5,265.1719 L134.5,275.1719 L61.5,275.1719 " fill="none" style="stroke:#000000;stroke-width:1.5;"/><text fill="#000000" font-family="sans-serif" font-size="14" lengthAdjust="spacing" textLength="73" x="64.5" y="269.8701">Endpoints</text><rect fill="#F1F1F1" height="33.9688" rx="12.5" ry="12.5" style="stroke:#181818;stroke-width:0.5;" width="143" x="76.5" y="292.1719"/><text fill="#000000" font-family="sans-serif" font-size="12" lengthAdjust="spacing" textLength="123" x="86.5" y="313.3105">Define API Endpoints</text><rect fill="#F1F1F1" height="33.9688" rx="12.5" ry="12.5" style="stroke:#181818;stroke-width:0.5;" width="153" x="71.5" y="346.1406"/><text fill="#000000" font-family="sans-serif" font-size="12" lengthAdjust="spacing" textLength="133" x="81.5" y="367.2793">Implement Controllers</text><rect fill="#F1F1F1" height="33.9688" rx="12.5" ry="12.5" style="stroke:#181818;stroke-width:0.5;" width="128" x="84" y="400.1094"/><text fill="#000000" font-family="sans-serif" font-size="12" lengthAdjust="spacing" textLength="108" x="94" y="421.248">Implement Routes</text><rect fill="none" height="244.1719" style="stroke:#000000;stroke-width:1.5;" width="259" x="18.5" y="456.0781"/><path d="M253.5,456.0781 L253.5,465.375 L243.5,475.375 L18.5,475.375 " fill="none" style="stroke:#000000;stroke-width:1.5;"/><text fill="#000000" font-family="sans-serif" font-size="14" lengthAdjust="spacing" textLength="225" x="21.5" y="470.0732">Authentication &amp; Authorization</text><rect fill="#F1F1F1" height="33.9688" rx="12.5" ry="12.5" style="stroke:#181818;stroke-width:0.5;" width="239" x="28.5" y="492.375"/><text fill="#000000" font-family="sans-serif" font-size="12" lengthAdjust="spacing" textLength="219" x="38.5" y="513.5137">Implement JWT Token Authentication</text><rect fill="#F1F1F1" height="33.9688" rx="12.5" ry="12.5" style="stroke:#181818;stroke-width:0.5;" width="144" x="76" y="546.3438"/><text fill="#000000" font-family="sans-serif" font-size="12" lengthAdjust="spacing" textLength="124" x="86" y="567.4824">Verify Access Token</text><rect fill="#F1F1F1" height="33.9688" rx="12.5" ry="12.5" style="stroke:#181818;stroke-width:0.5;" width="168" x="64" y="600.3125"/><text fill="#000000" font-family="sans-serif" font-size="12" lengthAdjust="spacing" textLength="148" x="74" y="621.4512">Invalidate Refresh Token</text><rect fill="#F1F1F1" height="33.9688" rx="12.5" ry="12.5" style="stroke:#181818;stroke-width:0.5;" width="226" x="35" y="654.2813"/><text fill="#000000" font-family="sans-serif" font-size="12" lengthAdjust="spacing" textLength="206" x="45" y="675.4199">Authorize Authenticated Endpoints</text><rect fill="none" height="136.2344" style="stroke:#000000;stroke-width:1.5;" width="260" x="18" y="710.25"/><path d="M168,710.25 L168,719.5469 L158,729.5469 L18,729.5469 " fill="none" style="stroke:#000000;stroke-width:1.5;"/><text fill="#000000" font-family="sans-serif" font-size="14" lengthAdjust="spacing" textLength="140" x="21" y="724.2451">Database Migration</text><rect fill="#F1F1F1" height="33.9688" rx="12.5" ry="12.5" style="stroke:#181818;stroke-width:0.5;" width="151" x="72.5" y="746.5469"/><text fill="#000000" font-family="sans-serif" font-size="12" lengthAdjust="spacing" textLength="131" x="82.5" y="767.6855">Create Migration Files</text><rect fill="#F1F1F1" height="33.9688" rx="12.5" ry="12.5" style="stroke:#181818;stroke-width:0.5;" width="240" x="28" y="800.5156"/><text fill="#000000" font-family="sans-serif" font-size="12" lengthAdjust="spacing" textLength="220" x="38" y="821.6543">Run Database Migrations with Goose</text><rect fill="none" height="460.0469" style="stroke:#000000;stroke-width:1.5;" width="240" x="28" y="856.4844"/><path d="M232,856.4844 L232,865.7813 L222,875.7813 L28,875.7813 " fill="none" style="stroke:#000000;stroke-width:1.5;"/><text fill="#000000" font-family="sans-serif" font-size="14" lengthAdjust="spacing" textLength="194" x="31" y="870.4795">Endpoints Implementation</text><rect fill="#F1F1F1" height="33.9688" rx="12.5" ry="12.5" style="stroke:#181818;stroke-width:0.5;" width="191" x="52.5" y="892.7813"/><text fill="#000000" font-family="sans-serif" font-size="12" lengthAdjust="spacing" textLength="171" x="62.5" y="913.9199">Implement /v1/token/refresh</text><rect fill="#F1F1F1" height="33.9688" rx="12.5" ry="12.5" style="stroke:#181818;stroke-width:0.5;" width="157" x="69.5" y="946.75"/><text fill="#000000" font-family="sans-serif" font-size="12" lengthAdjust="spacing" textLength="137" x="79.5" y="967.8887">Implement /v1/register</text><rect fill="#F1F1F1" height="33.9688" rx="12.5" ry="12.5" style="stroke:#181818;stroke-width:0.5;" width="147" x="74.5" y="1000.7188"/><text fill="#000000" font-family="sans-serif" font-size="12" lengthAdjust="spacing" textLength="127" x="84.5" y="1021.8574">Implement /v1/logout</text><rect fill="#F1F1F1" height="33.9688" rx="12.5" ry="12.5" style="stroke:#181818;stroke-width:0.5;" width="138" x="79" y="1054.6875"/><text fill="#000000" font-family="sans-serif" font-size="12" lengthAdjust="spacing" textLength="118" x="89" y="1075.8262">Implement /v1/login</text><rect fill="#F1F1F1" height="33.9688" rx="12.5" ry="12.5" style="stroke:#181818;stroke-width:0.5;" width="175" x="60.5" y="1108.6563"/><text fill="#000000" font-family="sans-serif" font-size="12" lengthAdjust="spacing" textLength="155" x="70.5" y="1129.7949">Implement /v1/candidates</text><rect fill="#F1F1F1" height="33.9688" rx="12.5" ry="12.5" style="stroke:#181818;stroke-width:0.5;" width="204" x="46" y="1162.625"/><text fill="#000000" font-family="sans-serif" font-size="12" lengthAdjust="spacing" textLength="184" x="56" y="1183.7637">Implement /v1/candidates/{id}</text><rect fill="#F1F1F1" height="33.9688" rx="12.5" ry="12.5" style="stroke:#181818;stroke-width:0.5;" width="220" x="38" y="1216.5938"/><text fill="#000000" font-family="sans-serif" font-size="12" lengthAdjust="spacing" textLength="200" x="48" y="1237.7324">Implement /v1/candidates search</text><rect fill="#F1F1F1" height="33.9688" rx="12.5" ry="12.5" style="stroke:#181818;stroke-width:0.5;" width="204" x="46" y="1270.5625"/><text fill="#000000" font-family="sans-serif" font-size="12" lengthAdjust="spacing" textLength="184" x="56" y="1291.7012">Implement /v1/candidates/{id}</text><rect fill="none" height="136.2344" style="stroke:#000000;stroke-width:1.5;" width="223" x="36.5" y="1326.5313"/><path d="M118.5,1326.5313 L118.5,1335.8281 L108.5,1345.8281 L36.5,1345.8281 " fill="none" style="stroke:#000000;stroke-width:1.5;"/><text fill="#000000" font-family="sans-serif" font-size="14" lengthAdjust="spacing" textLength="72" x="39.5" y="1340.5264">Validation</text><rect fill="#F1F1F1" height="33.9688" rx="12.5" ry="12.5" style="stroke:#181818;stroke-width:0.5;" width="203" x="46.5" y="1362.8281"/><text fill="#000000" font-family="sans-serif" font-size="12" lengthAdjust="spacing" textLength="183" x="56.5" y="1383.9668">Implement Frontend Validation</text><rect fill="#F1F1F1" height="33.9688" rx="12.5" ry="12.5" style="stroke:#181818;stroke-width:0.5;" width="201" x="47.5" y="1416.7969"/><text fill="#000000" font-family="sans-serif" font-size="12" lengthAdjust="spacing" textLength="181" x="57.5" y="1437.9355">Implement Backend Validation</text><rect fill="none" height="136.2344" style="stroke:#000000;stroke-width:1.5;" width="272" x="12" y="1472.7656"/><path d="M120,1472.7656 L120,1482.0625 L110,1492.0625 L12,1492.0625 " fill="none" style="stroke:#000000;stroke-width:1.5;"/><text fill="#000000" font-family="sans-serif" font-size="14" lengthAdjust="spacing" textLength="98" x="15" y="1486.7607">Authorization</text><rect fill="#F1F1F1" height="33.9688" rx="12.5" ry="12.5" style="stroke:#181818;stroke-width:0.5;" width="252" x="22" y="1509.0625"/><text fill="#000000" font-family="sans-serif" font-size="12" lengthAdjust="spacing" textLength="232" x="32" y="1530.2012">Implement Data Ownership (owner_id)</text><rect fill="#F1F1F1" height="33.9688" rx="12.5" ry="12.5" style="stroke:#181818;stroke-width:0.5;" width="159" x="68.5" y="1563.0313"/><text fill="#000000" font-family="sans-serif" font-size="12" lengthAdjust="spacing" textLength="139" x="78.5" y="1584.1699">Filter Data by owner_id</text><rect fill="none" height="136.2344" style="stroke:#000000;stroke-width:1.5;" width="199" x="48.5" y="1619"/><path d="M194.5,1619 L194.5,1628.2969 L184.5,1638.2969 L48.5,1638.2969 " fill="none" style="stroke:#000000;stroke-width:1.5;"/><text fill="#000000" font-family="sans-serif" font-size="14" lengthAdjust="spacing" textLength="136" x="51.5" y="1632.9951">Response Handling</text><rect fill="#F1F1F1" height="33.9688" rx="12.5" ry="12.5" style="stroke:#181818;stroke-width:0.5;" width="179" x="58.5" y="1655.2969"/><text fill="#000000" font-family="sans-serif" font-size="12" lengthAdjust="spacing" textLength="159" x="68.5" y="1676.4355">Handle HTTP Status Codes</text><rect fill="#F1F1F1" height="33.9688" rx="12.5" ry="12.5" style="stroke:#181818;stroke-width:0.5;" width="163" x="66.5" y="1709.2656"/><text fill="#000000" font-family="sans-serif" font-size="12" lengthAdjust="spacing" textLength="143" x="76.5" y="1730.4043">Return JSON Responses</text><rect fill="none" height="406.0781" style="stroke:#000000;stroke-width:1.5;" width="274" x="11" y="1765.2344"/><path d="M173,1765.2344 L173,1774.5313 L163,1784.5313 L11,1784.5313 " fill="none" style="stroke:#000000;stroke-width:1.5;"/><text fill="#000000" font-family="sans-serif" font-size="14" lengthAdjust="spacing" textLength="152" x="14" y="1779.2295">Database Operations</text><rect fill="#F1F1F1" height="33.9688" rx="12.5" ry="12.5" style="stroke:#181818;stroke-width:0.5;" width="191" x="52.5" y="1801.5313"/><text fill="#000000" font-family="sans-serif" font-size="12" lengthAdjust="spacing" textLength="171" x="62.5" y="1822.6699">Insert User into user_t Table</text><rect fill="#F1F1F1" height="33.9688" rx="12.5" ry="12.5" style="stroke:#181818;stroke-width:0.5;" width="254" x="21" y="1855.5"/><text fill="#000000" font-family="sans-serif" font-size="12" lengthAdjust="spacing" textLength="234" x="31" y="1876.6387">Insert Candidate into candidate_t Table</text><rect fill="#F1F1F1" height="33.9688" rx="12.5" ry="12.5" style="stroke:#181818;stroke-width:0.5;" width="169" x="63.5" y="1909.4688"/><text fill="#000000" font-family="sans-serif" font-size="12" lengthAdjust="spacing" textLength="149" x="73.5" y="1930.6074">Retrieve Candidate by ID</text><rect fill="#F1F1F1" height="33.9688" rx="12.5" ry="12.5" style="stroke:#181818;stroke-width:0.5;" width="251" x="22.5" y="1963.4375"/><text fill="#000000" font-family="sans-serif" font-size="12" lengthAdjust="spacing" textLength="231" x="32.5" y="1984.5762">Retrieve All Candidates with Pagination</text><rect fill="#F1F1F1" height="33.9688" rx="12.5" ry="12.5" style="stroke:#181818;stroke-width:0.5;" width="225" x="35.5" y="2017.4063"/><text fill="#000000" font-family="sans-serif" font-size="12" lengthAdjust="spacing" textLength="205" x="45.5" y="2038.5449">Search Candidates with Pagination</text><rect fill="#F1F1F1" height="33.9688" rx="12.5" ry="12.5" style="stroke:#181818;stroke-width:0.5;" width="163" x="66.5" y="2071.375"/><text fill="#000000" font-family="sans-serif" font-size="12" lengthAdjust="spacing" textLength="143" x="76.5" y="2092.5137">Update Candidate by ID</text><rect fill="#F1F1F1" height="33.9688" rx="12.5" ry="12.5" style="stroke:#181818;stroke-width:0.5;" width="159" x="68.5" y="2125.3438"/><text fill="#000000" font-family="sans-serif" font-size="12" lengthAdjust="spacing" textLength="139" x="78.5" y="2146.4824">Delete Candidate by ID</text><rect fill="none" height="244.1719" style="stroke:#000000;stroke-width:1.5;" width="188" x="54" y="2181.3125"/><path d="M193,2181.3125 L193,2190.6094 L183,2200.6094 L54,2200.6094 " fill="none" style="stroke:#000000;stroke-width:1.5;"/><text fill="#000000" font-family="sans-serif" font-size="14" lengthAdjust="spacing" textLength="129" x="57" y="2195.3076">Token Operations</text><rect fill="#F1F1F1" height="33.9688" rx="12.5" ry="12.5" style="stroke:#181818;stroke-width:0.5;" width="165" x="65.5" y="2217.6094"/><text fill="#000000" font-family="sans-serif" font-size="12" lengthAdjust="spacing" textLength="145" x="75.5" y="2238.748">Generate Access Token</text><rect fill="#F1F1F1" height="33.9688" rx="12.5" ry="12.5" style="stroke:#181818;stroke-width:0.5;" width="167" x="64.5" y="2271.5781"/><text fill="#000000" font-family="sans-serif" font-size="12" lengthAdjust="spacing" textLength="147" x="74.5" y="2292.7168">Generate Refresh Token</text><rect fill="#F1F1F1" height="33.9688" rx="12.5" ry="12.5" style="stroke:#181818;stroke-width:0.5;" width="144" x="76" y="2325.5469"/><text fill="#000000" font-family="sans-serif" font-size="12" lengthAdjust="spacing" textLength="124" x="86" y="2346.6855">Verify Access Token</text><rect fill="#F1F1F1" height="33.9688" rx="12.5" ry="12.5" style="stroke:#181818;stroke-width:0.5;" width="168" x="64" y="2379.5156"/><text fill="#000000" font-family="sans-serif" font-size="12" lengthAdjust="spacing" textLength="148" x="74" y="2400.6543">Invalidate Refresh Token</text><rect fill="none" height="136.2344" style="stroke:#000000;stroke-width:1.5;" width="189" x="53.5" y="2435.4844"/><path d="M170.5,2435.4844 L170.5,2444.7813 L160.5,2454.7813 L53.5,2454.7813 " fill="none" style="stroke:#000000;stroke-width:1.5;"/><text fill="#000000" font-family="sans-serif" font-size="14" lengthAdjust="spacing" textLength="107" x="56.5" y="2449.4795">Access Control</text><rect fill="#F1F1F1" height="33.9688" rx="12.5" ry="12.5" style="stroke:#181818;stroke-width:0.5;" width="110" x="93" y="2471.7813"/><text fill="#000000" font-family="sans-serif" font-size="12" lengthAdjust="spacing" textLength="90" x="103" y="2492.9199">Authorize User</text><rect fill="#F1F1F1" height="33.9688" rx="12.5" ry="12.5" style="stroke:#181818;stroke-width:0.5;" width="169" x="63.5" y="2525.75"/><text fill="#000000" font-family="sans-serif" font-size="12" lengthAdjust="spacing" textLength="149" x="73.5" y="2546.8887">Check User's Ownership</text><rect fill="none" height="190.2031" style="stroke:#000000;stroke-width:1.5;" width="165" x="65.5" y="2581.7188"/><path d="M186.5,2581.7188 L186.5,2591.0156 L176.5,2601.0156 L65.5,2601.0156 " fill="none" style="stroke:#000000;stroke-width:1.5;"/><text fill="#000000" font-family="sans-serif" font-size="14" lengthAdjust="spacing" textLength="111" x="68.5" y="2595.7139">JWT Operations</text><rect fill="#F1F1F1" height="33.9688" rx="12.5" ry="12.5" style="stroke:#181818;stroke-width:0.5;" width="144" x="76" y="2618.0156"/><text fill="#000000" font-family="sans-serif" font-size="12" lengthAdjust="spacing" textLength="124" x="86" y="2639.1543">Generate JWT Token</text><rect fill="#F1F1F1" height="33.9688" rx="12.5" ry="12.5" style="stroke:#181818;stroke-width:0.5;" width="136" x="80" y="2671.9844"/><text fill="#000000" font-family="sans-serif" font-size="12" lengthAdjust="spacing" textLength="116" x="90" y="2693.123">Validate JWT Token</text><rect fill="#F1F1F1" height="33.9688" rx="12.5" ry="12.5" style="stroke:#181818;stroke-width:0.5;" width="145" x="75.5" y="2725.9531"/><text fill="#000000" font-family="sans-serif" font-size="12" lengthAdjust="spacing" textLength="125" x="85.5" y="2747.0918">Decode JWT Payload</text><rect fill="#F1F1F1" height="33.9688" rx="12.5" ry="12.5" style="stroke:#181818;stroke-width:0.5;" width="109" x="93.5" y="2791.9219"/><text fill="#000000" font-family="sans-serif" font-size="12" lengthAdjust="spacing" textLength="89" x="103.5" y="2813.0605">Test Endpoints</text><rect fill="#F1F1F1" height="33.9688" rx="12.5" ry="12.5" style="stroke:#181818;stroke-width:0.5;" width="133" x="81.5" y="2845.8906"/><text fill="#000000" font-family="sans-serif" font-size="12" lengthAdjust="spacing" textLength="113" x="91.5" y="2867.0293">Deploy Application</text><ellipse cx="148" cy="2910.8594" fill="none" rx="11" ry="11" style="stroke:#222222;stroke-width:1.0;"/><ellipse cx="148" cy="2910.8594" fill="#222222" rx="6" ry="6" style="stroke:#111111;stroke-width:1.0;"/><line style="stroke:#181818;stroke-width:1.0;" x1="148" x2="148" y1="30" y2="50"/><polygon fill="#181818" points="144,40,148,50,152,40,148,44" style="stroke:#181818;stroke-width:1.0;"/><line style="stroke:#181818;stroke-width:1.0;" x1="148" x2="148" y1="83.9688" y2="103.9688"/><polygon fill="#181818" points="144,93.9688,148,103.9688,152,93.9688,148,97.9688" style="stroke:#181818;stroke-width:1.0;"/><line style="stroke:#181818;stroke-width:1.0;" x1="148" x2="148" y1="137.9375" y2="157.9375"/><polygon fill="#181818" points="144,147.9375,148,157.9375,152,147.9375,148,151.9375" style="stroke:#181818;stroke-width:1.0;"/><line style="stroke:#181818;stroke-width:1.0;" x1="148" x2="148" y1="191.9063" y2="211.9063"/><polygon fill="#181818" points="144,201.9063,148,211.9063,152,201.9063,148,205.9063" style="stroke:#181818;stroke-width:1.0;"/><line style="stroke:#181818;stroke-width:1.0;" x1="148" x2="148" y1="326.1406" y2="346.1406"/><polygon fill="#181818" points="144,336.1406,148,346.1406,152,336.1406,148,340.1406" style="stroke:#181818;stroke-width:1.0;"/><line style="stroke:#181818;stroke-width:1.0;" x1="148" x2="148" y1="380.1094" y2="400.1094"/><polygon fill="#181818" points="144,390.1094,148,400.1094,152,390.1094,148,394.1094" style="stroke:#181818;stroke-width:1.0;"/><line style="stroke:#181818;stroke-width:1.0;" x1="148" x2="148" y1="245.875" y2="292.1719"/><polygon fill="#181818" points="144,282.1719,148,292.1719,152,282.1719,148,286.1719" style="stroke:#181818;stroke-width:1.0;"/><line style="stroke:#181818;stroke-width:1.0;" x1="148" x2="148" y1="526.3438" y2="546.3438"/><polygon fill="#181818" points="144,536.3438,148,546.3438,152,536.3438,148,540.3438" style="stroke:#181818;stroke-width:1.0;"/><line style="stroke:#181818;stroke-width:1.0;" x1="148" x2="148" y1="580.3125" y2="600.3125"/><polygon fill="#181818" points="144,590.3125,148,600.3125,152,590.3125,148,594.3125" style="stroke:#181818;stroke-width:1.0;"/><line style="stroke:#181818;stroke-width:1.0;" x1="148" x2="148" y1="634.2813" y2="654.2813"/><polygon fill="#181818" points="144,644.2813,148,654.2813,152,644.2813,148,648.2813" style="stroke:#181818;stroke-width:1.0;"/><line style="stroke:#181818;stroke-width:1.0;" x1="148" x2="148" y1="434.0781" y2="492.375"/><polygon fill="#181818" points="144,482.375,148,492.375,152,482.375,148,486.375" style="stroke:#181818;stroke-width:1.0;"/><line style="stroke:#181818;stroke-width:1.0;" x1="148" x2="148" y1="780.5156" y2="800.5156"/><polygon fill="#181818" points="144,790.5156,148,800.5156,152,790.5156,148,794.5156" style="stroke:#181818;stroke-width:1.0;"/><line style="stroke:#181818;stroke-width:1.0;" x1="148" x2="148" y1="688.25" y2="746.5469"/><polygon fill="#181818" points="144,736.5469,148,746.5469,152,736.5469,148,740.5469" style="stroke:#181818;stroke-width:1.0;"/><line style="stroke:#181818;stroke-width:1.0;" x1="148" x2="148" y1="926.75" y2="946.75"/><polygon fill="#181818" points="144,936.75,148,946.75,152,936.75,148,940.75" style="stroke:#181818;stroke-width:1.0;"/><line style="stroke:#181818;stroke-width:1.0;" x1="148" x2="148" y1="980.7188" y2="1000.7188"/><polygon fill="#181818" points="144,990.7188,148,1000.7188,152,990.7188,148,994.7188" style="stroke:#181818;stroke-width:1.0;"/><line style="stroke:#181818;stroke-width:1.0;" x1="148" x2="148" y1="1034.6875" y2="1054.6875"/><polygon fill="#181818" points="144,1044.6875,148,1054.6875,152,1044.6875,148,1048.6875" style="stroke:#181818;stroke-width:1.0;"/><line style="stroke:#181818;stroke-width:1.0;" x1="148" x2="148" y1="1088.6563" y2="1108.6563"/><polygon fill="#181818" points="144,1098.6563,148,1108.6563,152,1098.6563,148,1102.6563" style="stroke:#181818;stroke-width:1.0;"/><line style="stroke:#181818;stroke-width:1.0;" x1="148" x2="148" y1="1142.625" y2="1162.625"/><polygon fill="#181818" points="144,1152.625,148,1162.625,152,1152.625,148,1156.625" style="stroke:#181818;stroke-width:1.0;"/><line style="stroke:#181818;stroke-width:1.0;" x1="148" x2="148" y1="1196.5938" y2="1216.5938"/><polygon fill="#181818" points="144,1206.5938,148,1216.5938,152,1206.5938,148,1210.5938" style="stroke:#181818;stroke-width:1.0;"/><line style="stroke:#181818;stroke-width:1.0;" x1="148" x2="148" y1="1250.5625" y2="1270.5625"/><polygon fill="#181818" points="144,1260.5625,148,1270.5625,152,1260.5625,148,1264.5625" style="stroke:#181818;stroke-width:1.0;"/><line style="stroke:#181818;stroke-width:1.0;" x1="148" x2="148" y1="834.4844" y2="892.7813"/><polygon fill="#181818" points="144,882.7813,148,892.7813,152,882.7813,148,886.7813" style="stroke:#181818;stroke-width:1.0;"/><line style="stroke:#181818;stroke-width:1.0;" x1="148" x2="148" y1="1396.7969" y2="1416.7969"/><polygon fill="#181818" points="144,1406.7969,148,1416.7969,152,1406.7969,148,1410.7969" style="stroke:#181818;stroke-width:1.0;"/><line style="stroke:#181818;stroke-width:1.0;" x1="148" x2="148" y1="1304.5313" y2="1362.8281"/><polygon fill="#181818" points="144,1352.8281,148,1362.8281,152,1352.8281,148,1356.8281" style="stroke:#181818;stroke-width:1.0;"/><line style="stroke:#181818;stroke-width:1.0;" x1="148" x2="148" y1="1543.0313" y2="1563.0313"/><polygon fill="#181818" points="144,1553.0313,148,1563.0313,152,1553.0313,148,1557.0313" style="stroke:#181818;stroke-width:1.0;"/><line style="stroke:#181818;stroke-width:1.0;" x1="148" x2="148" y1="1450.7656" y2="1509.0625"/><polygon fill="#181818" points="144,1499.0625,148,1509.0625,152,1499.0625,148,1503.0625" style="stroke:#181818;stroke-width:1.0;"/><line style="stroke:#181818;stroke-width:1.0;" x1="148" x2="148" y1="1689.2656" y2="1709.2656"/><polygon fill="#181818" points="144,1699.2656,148,1709.2656,152,1699.2656,148,1703.2656" style="stroke:#181818;stroke-width:1.0;"/><line style="stroke:#181818;stroke-width:1.0;" x1="148" x2="148" y1="1597" y2="1655.2969"/><polygon fill="#181818" points="144,1645.2969,148,1655.2969,152,1645.2969,148,1649.2969" style="stroke:#181818;stroke-width:1.0;"/><line style="stroke:#181818;stroke-width:1.0;" x1="148" x2="148" y1="1835.5" y2="1855.5"/><polygon fill="#181818" points="144,1845.5,148,1855.5,152,1845.5,148,1849.5" style="stroke:#181818;stroke-width:1.0;"/><line style="stroke:#181818;stroke-width:1.0;" x1="148" x2="148" y1="1889.4688" y2="1909.4688"/><polygon fill="#181818" points="144,1899.4688,148,1909.4688,152,1899.4688,148,1903.4688" style="stroke:#181818;stroke-width:1.0;"/><line style="stroke:#181818;stroke-width:1.0;" x1="148" x2="148" y1="1943.4375" y2="1963.4375"/><polygon fill="#181818" points="144,1953.4375,148,1963.4375,152,1953.4375,148,1957.4375" style="stroke:#181818;stroke-width:1.0;"/><line style="stroke:#181818;stroke-width:1.0;" x1="148" x2="148" y1="1997.4063" y2="2017.4063"/><polygon fill="#181818" points="144,2007.4063,148,2017.4063,152,2007.4063,148,2011.4063" style="stroke:#181818;stroke-width:1.0;"/><line style="stroke:#181818;stroke-width:1.0;" x1="148" x2="148" y1="2051.375" y2="2071.375"/><polygon fill="#181818" points="144,2061.375,148,2071.375,152,2061.375,148,2065.375" style="stroke:#181818;stroke-width:1.0;"/><line style="stroke:#181818;stroke-width:1.0;" x1="148" x2="148" y1="2105.3438" y2="2125.3438"/><polygon fill="#181818" points="144,2115.3438,148,2125.3438,152,2115.3438,148,2119.3438" style="stroke:#181818;stroke-width:1.0;"/><line style="stroke:#181818;stroke-width:1.0;" x1="148" x2="148" y1="1743.2344" y2="1801.5313"/><polygon fill="#181818" points="144,1791.5313,148,1801.5313,152,1791.5313,148,1795.5313" style="stroke:#181818;stroke-width:1.0;"/><line style="stroke:#181818;stroke-width:1.0;" x1="148" x2="148" y1="2251.5781" y2="2271.5781"/><polygon fill="#181818" points="144,2261.5781,148,2271.5781,152,2261.5781,148,2265.5781" style="stroke:#181818;stroke-width:1.0;"/><line style="stroke:#181818;stroke-width:1.0;" x1="148" x2="148" y1="2305.5469" y2="2325.5469"/><polygon fill="#181818" points="144,2315.5469,148,2325.5469,152,2315.5469,148,2319.5469" style="stroke:#181818;stroke-width:1.0;"/><line style="stroke:#181818;stroke-width:1.0;" x1="148" x2="148" y1="2359.5156" y2="2379.5156"/><polygon fill="#181818" points="144,2369.5156,148,2379.5156,152,2369.5156,148,2373.5156" style="stroke:#181818;stroke-width:1.0;"/><line style="stroke:#181818;stroke-width:1.0;" x1="148" x2="148" y1="2159.3125" y2="2217.6094"/><polygon fill="#181818" points="144,2207.6094,148,2217.6094,152,2207.6094,148,2211.6094" style="stroke:#181818;stroke-width:1.0;"/><line style="stroke:#181818;stroke-width:1.0;" x1="148" x2="148" y1="2505.75" y2="2525.75"/><polygon fill="#181818" points="144,2515.75,148,2525.75,152,2515.75,148,2519.75" style="stroke:#181818;stroke-width:1.0;"/><line style="stroke:#181818;stroke-width:1.0;" x1="148" x2="148" y1="2413.4844" y2="2471.7813"/><polygon fill="#181818" points="144,2461.7813,148,2471.7813,152,2461.7813,148,2465.7813" style="stroke:#181818;stroke-width:1.0;"/><line style="stroke:#181818;stroke-width:1.0;" x1="148" x2="148" y1="2651.9844" y2="2671.9844"/><polygon fill="#181818" points="144,2661.9844,148,2671.9844,152,2661.9844,148,2665.9844" style="stroke:#181818;stroke-width:1.0;"/><line style="stroke:#181818;stroke-width:1.0;" x1="148" x2="148" y1="2705.9531" y2="2725.9531"/><polygon fill="#181818" points="144,2715.9531,148,2725.9531,152,2715.9531,148,2719.9531" style="stroke:#181818;stroke-width:1.0;"/><line style="stroke:#181818;stroke-width:1.0;" x1="148" x2="148" y1="2559.7188" y2="2618.0156"/><polygon fill="#181818" points="144,2608.0156,148,2618.0156,152,2608.0156,148,2612.0156" style="stroke:#181818;stroke-width:1.0;"/><line style="stroke:#181818;stroke-width:1.0;" x1="148" x2="148" y1="2759.9219" y2="2791.9219"/><polygon fill="#181818" points="144,2781.9219,148,2791.9219,152,2781.9219,148,2785.9219" style="stroke:#181818;stroke-width:1.0;"/><line style="stroke:#181818;stroke-width:1.0;" x1="148" x2="148" y1="2825.8906" y2="2845.8906"/><polygon fill="#181818" points="144,2835.8906,148,2845.8906,152,2835.8906,148,2839.8906" style="stroke:#181818;stroke-width:1.0;"/><line style="stroke:#181818;stroke-width:1.0;" x1="148" x2="148" y1="2879.8594" y2="2899.8594"/><polygon fill="#181818" points="144,2889.8594,148,2899.8594,152,2889.8594,148,2893.8594" style="stroke:#181818;stroke-width:1.0;"/><!--SRC=[bLHDRnen4BtpAqOvzEE4UWqd2arAb3O8DkanChi3Qs5io_OIqIZ_lMER_LxIzeBMyvxdUMOUOnqpRZIwNaZhc11mpmmxefZKaRjV2TppZM7cD27YJCajtnK6OSuSsp2BG269gUDAqhKvRhbiWEiqnmEZcvg4k2V1rJUPQSMbirVmEW8exqoN2wYWYGSM1otmWD9v3MUK46Ywo4eL3YdurfAO5YudbASid3-03oZ3VuVpMRTEuejCr1ubj2y6hISqV7k2QPgYjP4Mto2FJF2CEOGLRWtQl06MUjZCY5cpmFQBguxzu3lJVENCe9Uemd331SOkh0e9_NiMNhZBuLOfYrsLIXwgueSxCZv-6JjVpTZ4sYPztE2EMuTc019gHtCP1hWSYATCPg6Nzbrm_CgpjtSPO96PDF-NBEtMFCLX3ZNZnf3zK6PGSphvlx9qtoNq7NdPW7wAyF0YoTyvr_19-SzdddqEEZHnQdCaRKvGWbs95LfDuqVuJfKABdTdcN2aQ98iOKtpBYpzdxBIG-WA8-5k_V0JoWINpVcWyMooiWIY6mUFz0laAmK5VJqxIDX6uAJ1c9NTZxHg62qkFSPmF6A3JVKkvcrmIcjfLWyyk7t9o5VrPDR117zZFUeWCIGsHu53KBilSMVqcdABqaUmlpCgfByn_d_DT0mMBvutvVabzHho4mhvPZcc-t3yQ6lBTRFvZNYvhcfVnfUNxsk7vvYIoq9moKv2iMZOwmIjQ-v18cgXg7AjHRLtHzOf_GS0]--></g></svg>